<svg xmlns="http://www.w3.org/2000/svg" viewBox="0 0 1200 630" role="img" aria-labelledby="title desc">
  <title id="title">UG Bridge home screen preview</title>
  <desc id="desc">The UG Bridge home screen with the header, workspace tabs, hero copy, script glossary, and live bridge preview.</desc>
  <defs>
    <filter id="card-shadow" x="-8%" y="-10%" width="116%" height="126%">
      <feDropShadow dx="0" dy="1" stdDeviation="1" flood-color="#0f172a" flood-opacity="0.06"/>
    </filter>
    <style>
      .ui { font-family: Inter, "Segoe UI", Arial, sans-serif; }
      .mono { font-family: Menlo, Consolas, "Liberation Mono", monospace; }
      .ug { font-family: "Noto Naskh Arabic", "Amiri", "Times New Roman", serif; }
      .icon { fill: none; stroke: currentColor; stroke-width: 2; stroke-linecap: round; stroke-linejoin: round; }
      .github { fill: currentColor; }
    </style>
    <symbol id="icon-languages" viewBox="0 0 24 24">
      <path class="icon" d="m5 8 6 6"/>
      <path class="icon" d="m4 14 6-6 2-3"/>
      <path class="icon" d="M2 5h12"/>
      <path class="icon" d="M7 2h1"/>
      <path class="icon" d="m22 22-5-10-5 10"/>
      <path class="icon" d="M14 18h6"/>
    </symbol>
    <symbol id="icon-home" viewBox="0 0 24 24">
      <path class="icon" d="M15 21v-8a1 1 0 0 0-1-1h-4a1 1 0 0 0-1 1v8"/>
      <path class="icon" d="M3 10a2 2 0 0 1 .709-1.528l7-6a2 2 0 0 1 2.582 0l7 6A2 2 0 0 1 21 10v9a2 2 0 0 1-2 2H5a2 2 0 0 1-2-2z"/>
    </symbol>
    <symbol id="icon-monitor" viewBox="0 0 24 24">
      <rect class="icon" width="20" height="14" x="2" y="3" rx="2"/>
      <path class="icon" d="M8 21h8"/>
      <path class="icon" d="M12 17v4"/>
    </symbol>
    <symbol id="icon-sun" viewBox="0 0 24 24">
      <circle class="icon" cx="12" cy="12" r="4"/>
      <path class="icon" d="M12 2v2M12 20v2M4.93 4.93l1.41 1.41M17.66 17.66l1.41 1.41M2 12h2M20 12h2M6.34 17.66l-1.41 1.41M19.07 4.93l-1.41 1.41"/>
    </symbol>
    <symbol id="icon-moon" viewBox="0 0 24 24">
      <path class="icon" d="M20.985 12.486a9 9 0 1 1-9.473-9.472c.405-.022.617.46.402.803a6 6 0 0 0 8.268 8.268c.344-.215.825-.004.803.401"/>
    </symbol>
    <symbol id="icon-search" viewBox="0 0 24 24">
      <path class="icon" d="m21 21-4.34-4.34"/>
      <circle class="icon" cx="11" cy="11" r="8"/>
    </symbol>
    <symbol id="icon-share" viewBox="0 0 24 24">
      <circle class="icon" cx="18" cy="5" r="3"/>
      <circle class="icon" cx="6" cy="12" r="3"/>
      <circle class="icon" cx="18" cy="19" r="3"/>
      <path class="icon" d="M8.59 13.51l6.83 3.98M15.41 6.51 8.59 10.49"/>
    </symbol>
    <symbol id="icon-graduation" viewBox="0 0 24 24">
      <path class="icon" d="M21.42 10.922a1 1 0 0 0-.019-1.838L12.83 5.18a2 2 0 0 0-1.66 0L2.6 9.08a1 1 0 0 0 0 1.832l8.57 3.908a2 2 0 0 0 1.66 0z"/>
      <path class="icon" d="M22 10v6M6 12.5V16a6 3 0 0 0 12 0v-3.5"/>
    </symbol>
    <symbol id="icon-list-checks" viewBox="0 0 24 24">
      <path class="icon" d="M13 5h8M13 12h8M13 19h8M3 17l2 2 4-4M3 7l2 2 4-4"/>
    </symbol>
    <symbol id="icon-book" viewBox="0 0 24 24">
      <path class="icon" d="M12 7v14M16 12h2M16 8h2"/>
      <path class="icon" d="M3 18a1 1 0 0 1-1-1V4a1 1 0 0 1 1-1h5a4 4 0 0 1 4 4 4 4 0 0 1 4-4h5a1 1 0 0 1 1 1v13a1 1 0 0 1-1 1h-6a3 3 0 0 0-3 3 3 3 0 0 0-3-3z"/>
      <path class="icon" d="M6 12h2M6 8h2"/>
    </symbol>
    <symbol id="icon-sparkles" viewBox="0 0 24 24">
      <path class="icon" d="M11.017 2.814a1 1 0 0 1 1.966 0l1.051 5.558a2 2 0 0 0 1.594 1.594l5.558 1.051a1 1 0 0 1 0 1.966l-5.558 1.051a2 2 0 0 0-1.594 1.594l-1.051 5.558a1 1 0 0 1-1.966 0l-1.051-5.558a2 2 0 0 0-1.594-1.594l-5.558-1.051a1 1 0 0 1 0-1.966l5.558-1.051a2 2 0 0 0 1.594-1.594z"/>
      <path class="icon" d="M20 2v4M22 4h-4"/>
      <circle class="icon" cx="4" cy="20" r="2"/>
    </symbol>
    <symbol id="icon-wifi-off" viewBox="0 0 24 24">
      <path class="icon" d="M12 20h.01M8.5 16.429a5 5 0 0 1 7 0M5 12.859a10 10 0 0 1 5.17-2.69M19 12.859a10 10 0 0 0-2.007-1.523M2 8.82a15 15 0 0 1 4.177-2.643M22 8.82a15 15 0 0 0-11.288-3.764M2 2l20 20"/>
    </symbol>
    <symbol id="icon-arrow" viewBox="0 0 24 24">
      <path class="icon" d="M5 12h14M12 5l7 7-7 7"/>
    </symbol>
    <symbol id="icon-github" viewBox="0 0 24 24">
      <path class="github" fill-rule="evenodd" clip-rule="evenodd" d="M12 2C6.48 2 2 6.58 2 12.23c0 4.52 2.87 8.35 6.84 9.71.5.1.68-.22.68-.49 0-.24-.01-.89-.01-1.75-2.78.62-3.37-1.37-3.37-1.37-.45-1.19-1.11-1.5-1.11-1.5-.91-.64.07-.63.07-.63 1 .07 1.53 1.06 1.53 1.06.89 1.56 2.34 1.11 2.91.85.09-.66.35-1.11.63-1.37-2.22-.26-4.56-1.14-4.56-5.06 0-1.12.39-2.03 1.03-2.75-.1-.26-.45-1.3.1-2.71 0 0 .84-.28 2.75 1.05A9.4 9.4 0 0 1 12 6.93c.85 0 1.71.12 2.51.35 1.91-1.33 2.75-1.05 2.75-1.05.55 1.41.2 2.45.1 2.71.64.72 1.03 1.63 1.03 2.75 0 3.93-2.34 4.79-4.57 5.05.36.32.68.94.68 1.9 0 1.37-.01 2.47-.01 2.81 0 .27.18.59.69.49A10.05 10.05 0 0 0 22 12.23C22 6.58 17.52 2 12 2Z"/>
    </symbol>
  </defs>

  <rect width="1200" height="630" fill="#f1f5f9"/>

  <g class="ui">
    <g transform="translate(56 32)">
      <rect width="40" height="40" rx="12" fill="#4f46e5"/>
      <svg x="10" y="10" width="20" height="20" color="#ffffff"><use href="#icon-languages"/></svg>
      <text x="53" y="29" fill="#020617" font-size="31" font-weight="800">UG Bridge</text>

      <text x="0" y="65" fill="#334155" font-size="15.5">
        <tspan x="0" dy="0">Convert between UEY (Uyghur Arabic script)</tspan>
        <tspan x="0" dy="24">and ULY (Uyghur Latin alphabet), search</tspan>
        <tspan x="0" dy="24">dictionary data, and study Uyghur script.</tspan>
      </text>
    </g>

    <g transform="translate(912 34)">
      <rect width="124" height="38" rx="19" fill="#ffffff" stroke="#d7dee8" filter="url(#card-shadow)"/>
      <rect x="4" y="4" width="37" height="30" rx="15" fill="#4f46e5"/>
      <svg x="14.5" y="11" width="16" height="16" color="#ffffff"><use href="#icon-monitor"/></svg>
      <svg x="58" y="11" width="16" height="16" color="#64748b"><use href="#icon-sun"/></svg>
      <svg x="96" y="11" width="16" height="16" color="#64748b"><use href="#icon-moon"/></svg>
    </g>

    <g transform="translate(1046 34)">
      <rect width="98" height="38" rx="19" fill="#ffffff" stroke="#d7dee8" filter="url(#card-shadow)"/>
      <svg x="14" y="11" width="16" height="16" color="#334155"><use href="#icon-github"/></svg>
      <text x="39" y="25" fill="#334155" font-size="14" font-weight="700">GitHub</text>
    </g>

    <g transform="translate(440 84)">
      <rect width="704" height="46" rx="23" fill="#ffffff" stroke="#d7dee8" filter="url(#card-shadow)"/>
      <g color="#334155" font-size="15" font-weight="700">
        <svg x="36" y="15" width="16" height="16"><use href="#icon-languages"/></svg>
        <text x="58" y="28">Convert</text>
        <svg x="167" y="15" width="16" height="16"><use href="#icon-graduation"/></svg>
        <text x="189" y="28">Learn UEY</text>
        <svg x="326" y="15" width="16" height="16"><use href="#icon-list-checks"/></svg>
        <text x="348" y="28">Quiz</text>
        <svg x="448" y="15" width="16" height="16"><use href="#icon-book"/></svg>
        <text x="470" y="28">Alphabet</text>
        <svg x="582" y="15" width="16" height="16"><use href="#icon-search"/></svg>
        <text x="604" y="28">Dictionary</text>
      </g>
    </g>

    <line x1="56" y1="172" x2="1144" y2="172" stroke="#dbe4f0"/>

    <g transform="translate(56 198)">
      <rect width="98" height="36" rx="18" fill="#ffffff" stroke="#d7dee8" filter="url(#card-shadow)"/>
      <svg x="16" y="10" width="16" height="16" color="#475569"><use href="#icon-home"/></svg>
      <text x="40" y="23" fill="#334155" font-size="15" font-weight="700">Home</text>
    </g>

    <g transform="translate(1056 198)">
      <rect width="88" height="36" rx="18" fill="#ffffff" stroke="#d7dee8" filter="url(#card-shadow)"/>
      <svg x="16" y="10" width="16" height="16" color="#334155"><use href="#icon-share"/></svg>
      <text x="38" y="23" fill="#334155" font-size="15" font-weight="500">Share</text>
    </g>

    <g transform="translate(56 269)">
      <text x="0" y="10" fill="#4f46e5" font-size="14" font-weight="800" letter-spacing="6">UYGHUR SCRIPT WORKSPACE</text>
      <text x="0" y="59" fill="#020617" font-size="35" font-weight="800">
        <tspan x="0" dy="0">Convert, search, and study</tspan>
        <tspan x="0" dy="40">Uyghur across UEY and ULY.</tspan>
      </text>
      <text x="0" y="139" fill="#334155" font-size="16.5">
        <tspan x="0" dy="0">UEY is the Uyghur Arabic-script writing system. ULY is Uyghur</tspan>
        <tspan x="0" dy="28">written with the Latin alphabet. UG Bridge keeps both forms visible</tspan>
        <tspan x="0" dy="28">for conversion, dictionary lookup, alphabet study, and IPA hints.</tspan>
      </text>
    </g>

    <g transform="translate(56 493)">
      <rect width="289" height="89" rx="6" fill="#ffffff" stroke="#d7dee8"/>
      <text x="12" y="23" fill="#020617" font-size="14.5" font-weight="800">UEY</text>
      <text x="12" y="49" fill="#475569" font-size="15">
        <tspan x="12" dy="0">Uyghur Ereb Yéziqi, the Arabic-based</tspan>
        <tspan x="12" dy="24">script commonly used for Uyghur.</tspan>
      </text>

      <g transform="translate(299 0)">
        <rect width="289" height="89" rx="6" fill="#ffffff" stroke="#d7dee8"/>
        <text x="12" y="23" fill="#020617" font-size="14.5" font-weight="800">ULY</text>
        <text x="12" y="49" fill="#475569" font-size="15">
          <tspan x="12" dy="0">Uyghur Latin Yéziqi, a Latin-alphabet</tspan>
          <tspan x="12" dy="24">writing system for Uyghur.</tspan>
        </text>
      </g>
    </g>

    <g transform="translate(56 602)">
      <rect width="171" height="40" rx="6" fill="#4f46e5"/>
      <text x="16" y="25" fill="#ffffff" font-size="14" font-weight="700">Start converting</text>
      <svg x="140" y="12" width="16" height="16" color="#ffffff"><use href="#icon-arrow"/></svg>
      <rect x="183" width="160" height="40" rx="20" fill="#ffffff" stroke="#d7dee8"/>
      <svg x="198" y="12" width="16" height="16" color="#334155"><use href="#icon-search"/></svg>
      <text x="222" y="25" fill="#334155" font-size="14" font-weight="500">Search dictionary</text>
    </g>

    <g transform="translate(662 263)">
      <rect width="482" height="392" rx="8" fill="#ffffff" stroke="#d7dee8"/>
      <g transform="translate(16 16)">
        <rect width="114" height="25" rx="12.5" fill="#eef2ff"/>
        <svg x="12" y="5" width="15" height="15" color="#4f46e5"><use href="#icon-sparkles"/></svg>
        <text x="36" y="17" fill="#4f46e5" font-size="13" font-weight="800">Live bridge</text>

        <rect x="336" width="113" height="25" rx="12.5" fill="#f1f5f9"/>
        <svg x="348" y="5" width="15" height="15" color="#475569"><use href="#icon-wifi-off"/></svg>
        <text x="371" y="17" fill="#334155" font-size="13" font-weight="800">Offline core</text>
      </g>

      <g transform="translate(16 56)">
        <rect width="450" height="108" rx="6" fill="#f8fafc" stroke="#d7dee8"/>
        <text x="14" y="25" fill="#64748b" font-size="13" font-weight="800">UEY</text>
        <svg x="418" y="18" width="16" height="16" color="#4f46e5"><use href="#icon-languages"/></svg>
        <text x="435" y="83" fill="#020617" font-size="37" font-weight="700" text-anchor="end" class="ug">ئۇيغۇرچە يېزىق</text>
      </g>

      <g transform="translate(16 176)">
        <rect width="209" height="74" rx="6" fill="#ffffff" stroke="#d7dee8"/>
        <text x="13" y="26" fill="#94a3b8" font-size="12" font-weight="800">ULY</text>
        <text x="13" y="51" fill="#4f46e5" font-size="17" font-weight="800" class="mono">uyghurche yéziq</text>

        <svg x="216" y="29" width="20" height="20" color="#4f46e5"><use href="#icon-arrow"/></svg>

        <rect x="242" width="208" height="74" rx="6" fill="#ffffff" stroke="#d7dee8"/>
        <text x="255" y="26" fill="#94a3b8" font-size="12" font-weight="800">IPA</text>
        <text x="255" y="51" fill="#059669" font-size="16" font-weight="800" class="mono">/jɑχʃimusiz/</text>
      </g>

      <g transform="translate(16 260)" fill="#020617" font-size="27" text-anchor="middle" class="ug">
        <rect width="109" height="50" rx="6" fill="#ffffff" stroke="#d7dee8"/>
        <rect x="114" width="109" height="50" rx="6" fill="#ffffff" stroke="#d7dee8"/>
        <rect x="228" width="109" height="50" rx="6" fill="#ffffff" stroke="#d7dee8"/>
        <rect x="342" width="108" height="50" rx="6" fill="#ffffff" stroke="#d7dee8"/>
        <rect y="55" width="109" height="50" rx="6" fill="#ffffff" stroke="#d7dee8"/>
        <rect x="114" y="55" width="109" height="50" rx="6" fill="#ffffff" stroke="#d7dee8"/>
        <rect x="228" y="55" width="109" height="50" rx="6" fill="#ffffff" stroke="#d7dee8"/>
        <rect x="342" y="55" width="108" height="50" rx="6" fill="#ffffff" stroke="#d7dee8"/>
        <text x="54.5" y="34">ئا</text>
        <text x="168.5" y="34">ب</text>
        <text x="282.5" y="34">چ</text>
        <text x="396" y="34">غ</text>
        <text x="54.5" y="89">ق</text>
        <text x="168.5" y="89">ڭ</text>
        <text x="282.5" y="89">ئې</text>
        <text x="396" y="89">ي</text>
      </g>
    </g>
  </g>
</svg>
