<svg xmlns="http://www.w3.org/2000/svg" viewBox="0 0 1200 630" role="img" aria-labelledby="title desc" font-family="Arial, sans-serif">
  <title id="title">UG Bridge app preview</title>
  <desc id="desc">A visual preview of the UG Bridge home screen with workspace tabs, converter preview, dictionary, learning, quiz, and alphabet tools.</desc>
  <defs>
    <linearGradient id="page-bg" x1="0" y1="0" x2="1" y2="1">
      <stop offset="0" stop-color="#e0f2fe"/>
      <stop offset="0.48" stop-color="#f8fafc"/>
      <stop offset="1" stop-color="#dcfce7"/>
    </linearGradient>
    <filter id="window-shadow" x="-15%" y="-18%" width="130%" height="136%">
      <feDropShadow dx="0" dy="20" stdDeviation="24" flood-color="#0f172a" flood-opacity="0.18"/>
    </filter>
    <filter id="soft-shadow" x="-20%" y="-20%" width="140%" height="140%">
      <feDropShadow dx="0" dy="6" stdDeviation="7" flood-color="#0f172a" flood-opacity="0.10"/>
    </filter>
  </defs>

  <rect width="1200" height="630" rx="40" fill="url(#page-bg)"/>

  <g transform="translate(72 42)">
    <rect width="1056" height="546" rx="28" fill="#ffffff" filter="url(#window-shadow)"/>
    <rect x="24" y="24" width="1008" height="498" rx="18" fill="#f1f5f9" stroke="#dbe4f0"/>

    <g transform="translate(52 52)">
      <g>
        <rect width="40" height="40" rx="12" fill="#4f46e5"/>
        <path d="M13 15c4 0 6 2 8 5 2-3 4-5 8-5M13 25c4 0 6-2 8-5 2 3 4 5 8 5" fill="none" stroke="#ffffff" stroke-width="2.6" stroke-linecap="round"/>
        <text x="54" y="28" fill="#020617" font-size="30" font-weight="800">UG Bridge</text>
        <text x="0" y="65" fill="#64748b" font-size="14">Convert UEY and ULY, search dictionary data, and study Uyghur script.</text>
      </g>

      <g transform="translate(640 0)">
        <rect width="128" height="40" rx="20" fill="#ffffff" stroke="#cbd5e1"/>
        <rect x="4" y="4" width="38.6" height="32" rx="16" fill="#4f46e5"/>
        <circle cx="23" cy="20" r="6" fill="#ffffff"/>
        <path d="M23 8v4M23 28v4M11 20h4M31 20h4" stroke="#ffffff" stroke-width="1.7" stroke-linecap="round"/>
        <path d="M63 13h12v14H63z" fill="none" stroke="#64748b" stroke-width="2" rx="2"/>
        <path d="M102 14a9 9 0 1 0 8 13 11 11 0 0 1-8-13Z" fill="#64748b"/>
      </g>

      <g transform="translate(782 0)">
        <rect width="96" height="40" rx="20" fill="#ffffff" stroke="#cbd5e1"/>
        <path d="M31 12c-5 0-9 4-9 9 0 4 3 8 7 9 .5.1.7-.2.7-.5v-3c-3 .7-3.7-1.2-3.7-1.2-.5-1.2-1.2-1.5-1.2-1.5-1-.7.1-.7.1-.7 1.1.1 1.7 1.2 1.7 1.2 1 1.7 2.6 1.2 3.2.9.1-.7.4-1.2.7-1.5-2.4-.3-4.9-1.2-4.9-5.3 0-1.2.4-2.1 1.1-2.9-.1-.3-.5-1.4.1-2.8 0 0 .9-.3 3 1.1.9-.3 1.8-.4 2.7-.4.9 0 1.8.1 2.7.4 2.1-1.4 3-1.1 3-1.1.6 1.4.2 2.5.1 2.8.7.8 1.1 1.7 1.1 2.9 0 4.1-2.5 5-4.9 5.3.4.3.7 1 .7 2v3.4c0 .3.2.6.7.5 4-1.3 6.9-5 6.9-9.4 0-5.5-4.4-10-9.9-10Z" fill="#334155"/>
        <text x="58" y="26" fill="#334155" font-size="14" font-weight="700">GitHub</text>
      </g>

      <g transform="translate(466 62)">
        <rect width="488" height="44" rx="22" fill="#ffffff" stroke="#cbd5e1"/>
        <rect x="4" y="4" width="96" height="36" rx="18" fill="#4f46e5" filter="url(#soft-shadow)"/>
        <text x="52" y="28" fill="#ffffff" font-size="13" font-weight="700" text-anchor="middle">Convert</text>
        <text x="148" y="28" fill="#64748b" font-size="13" font-weight="700" text-anchor="middle">Learn UEY</text>
        <text x="244" y="28" fill="#64748b" font-size="13" font-weight="700" text-anchor="middle">Quiz</text>
        <text x="340" y="28" fill="#64748b" font-size="13" font-weight="700" text-anchor="middle">Alphabet</text>
        <text x="436" y="28" fill="#64748b" font-size="13" font-weight="700" text-anchor="middle">Dictionary</text>
      </g>

      <line x1="0" y1="126" x2="956" y2="126" stroke="#dbe4f0"/>
    </g>

    <g transform="translate(52 202)">
      <rect width="82" height="34" rx="17" fill="#ffffff" stroke="#e2e8f0"/>
      <circle cx="21" cy="17" r="7" fill="#4f46e5"/>
      <text x="38" y="22" fill="#334155" font-size="14" font-weight="700">Home</text>
    </g>

    <g transform="translate(52 258)">
      <text x="0" y="0" fill="#4f46e5" font-size="14" font-weight="800">UYGHUR SCRIPT WORKSPACE</text>
      <text x="0" y="44" fill="#020617" font-size="40" font-weight="800">Convert, search, and study</text>
      <text x="0" y="90" fill="#020617" font-size="40" font-weight="800">Uyghur across UEY and ULY.</text>
      <text x="0" y="124" fill="#475569" font-size="17">ياخشىمۇسىز ⇄ yaxshimusiz</text>

      <g transform="translate(0 156)">
        <rect width="160" height="40" rx="8" fill="#4f46e5"/>
        <text x="18" y="25" fill="#ffffff" font-size="14" font-weight="700">Start converting</text>
        <path d="M132 20h12M139 14l6 6-6 6" fill="none" stroke="#ffffff" stroke-width="2" stroke-linecap="round" stroke-linejoin="round"/>
        <rect x="174" width="148" height="40" rx="20" fill="#ffffff" stroke="#cbd5e1"/>
        <circle cx="196" cy="20" r="7" fill="none" stroke="#4f46e5" stroke-width="2"/>
        <path d="m201 25 6 6" stroke="#4f46e5" stroke-width="2" stroke-linecap="round"/>
        <text x="218" y="25" fill="#334155" font-size="14" font-weight="700">Dictionary</text>
      </g>
    </g>

    <g transform="translate(666 210)">
      <rect width="334" height="264" rx="8" fill="#ffffff" stroke="#dbe4f0" filter="url(#soft-shadow)"/>
      <g transform="translate(20 18)">
        <rect width="100" height="26" rx="13" fill="#eef2ff"/>
        <path d="M19 8v5M19 17v3M14 14h10" stroke="#4f46e5" stroke-width="2" stroke-linecap="round"/>
        <text x="34" y="18" fill="#4338ca" font-size="12" font-weight="700">Live bridge</text>

        <rect x="180" width="114" height="26" rx="13" fill="#f1f5f9"/>
        <path d="M198 8v6h6M210 8v10h-12" fill="none" stroke="#64748b" stroke-width="1.8" stroke-linecap="round" stroke-linejoin="round"/>
        <text x="218" y="18" fill="#475569" font-size="12" font-weight="700">Offline core</text>
      </g>

      <g transform="translate(20 58)">
        <rect width="294" height="82" rx="8" fill="#f8fafc" stroke="#e2e8f0"/>
        <text x="16" y="24" fill="#64748b" font-size="12" font-weight="700">UEY</text>
        <path d="M264 19c4-5 10-5 14 0M264 26c4 5 10 5 14 0" fill="none" stroke="#4f46e5" stroke-width="2.2" stroke-linecap="round"/>
        <text x="274" y="60" fill="#020617" font-size="31" font-weight="700" text-anchor="end">ئۇيغۇرچە يېزىق</text>
      </g>

      <g transform="translate(20 152)">
        <rect width="132" height="58" rx="8" fill="#ffffff" stroke="#e2e8f0"/>
        <text x="14" y="21" fill="#94a3b8" font-size="11" font-weight="800">ULY</text>
        <text x="14" y="43" fill="#4f46e5" font-family="Menlo, Consolas, monospace" font-size="15" font-weight="700">uyghurche yéziq</text>
        <path d="M161 29h18M172 20l9 9-9 9" fill="none" stroke="#4f46e5" stroke-width="2.4" stroke-linecap="round" stroke-linejoin="round"/>
        <rect x="194" width="100" height="58" rx="8" fill="#ffffff" stroke="#e2e8f0"/>
        <text x="208" y="21" fill="#94a3b8" font-size="11" font-weight="800">IPA</text>
        <text x="208" y="43" fill="#059669" font-family="Menlo, Consolas, monospace" font-size="14" font-weight="700">/jɑχʃi/</text>
      </g>

      <g transform="translate(20 222)">
        <rect width="294" height="1" fill="#e2e8f0"/>
        <g transform="translate(0 12)">
          <rect width="30" height="30" rx="6" fill="#ffffff" stroke="#e2e8f0"/>
          <rect x="38" width="30" height="30" rx="6" fill="#ffffff" stroke="#e2e8f0"/>
          <rect x="76" width="30" height="30" rx="6" fill="#ffffff" stroke="#e2e8f0"/>
          <rect x="114" width="30" height="30" rx="6" fill="#ffffff" stroke="#e2e8f0"/>
          <rect x="152" width="30" height="30" rx="6" fill="#ffffff" stroke="#e2e8f0"/>
          <rect x="190" width="30" height="30" rx="6" fill="#ffffff" stroke="#e2e8f0"/>
          <rect x="228" width="30" height="30" rx="6" fill="#ffffff" stroke="#e2e8f0"/>
          <rect x="266" width="28" height="30" rx="6" fill="#ffffff" stroke="#e2e8f0"/>
          <text x="15" y="22" fill="#020617" font-size="19" text-anchor="middle">ئا</text>
          <text x="53" y="22" fill="#020617" font-size="19" text-anchor="middle">ب</text>
          <text x="91" y="22" fill="#020617" font-size="19" text-anchor="middle">چ</text>
          <text x="129" y="22" fill="#020617" font-size="19" text-anchor="middle">غ</text>
          <text x="167" y="22" fill="#020617" font-size="19" text-anchor="middle">ق</text>
          <text x="205" y="22" fill="#020617" font-size="19" text-anchor="middle">ڭ</text>
          <text x="243" y="22" fill="#020617" font-size="19" text-anchor="middle">ې</text>
          <text x="280" y="22" fill="#020617" font-size="19" text-anchor="middle">ي</text>
        </g>
      </g>
    </g>

    <g transform="translate(52 484)">
      <g>
        <rect width="180" height="48" rx="8" fill="#ffffff" stroke="#e2e8f0"/>
        <rect x="12" y="10" width="28" height="28" rx="6" fill="#eef2ff"/>
        <path d="M21 18h10M21 24h10M21 30h10" stroke="#4f46e5" stroke-width="2" stroke-linecap="round"/>
        <text x="52" y="21" fill="#0f172a" font-size="14" font-weight="800">350k headwords</text>
        <text x="52" y="36" fill="#64748b" font-size="12">Lazy dictionary data</text>
      </g>
      <g transform="translate(196 0)">
        <rect width="204" height="48" rx="8" fill="#ffffff" stroke="#e2e8f0"/>
        <rect x="12" y="10" width="28" height="28" rx="6" fill="#ecfdf5"/>
        <path d="M20 25l5 5 11-14" fill="none" stroke="#059669" stroke-width="2.4" stroke-linecap="round" stroke-linejoin="round"/>
        <text x="52" y="21" fill="#0f172a" font-size="14" font-weight="800">Local first</text>
        <text x="52" y="36" fill="#64748b" font-size="12">History stays on device</text>
      </g>
      <g transform="translate(408 0)">
        <rect width="182" height="48" rx="8" fill="#ffffff" stroke="#e2e8f0"/>
        <rect x="12" y="10" width="28" height="28" rx="6" fill="#fef3c7"/>
        <path d="M20 28h4l6 5V15l-6 5h-4v8Z" fill="none" stroke="#d97706" stroke-width="2" stroke-linejoin="round"/>
        <path d="M34 20c2 2 2 6 0 8" fill="none" stroke="#d97706" stroke-width="2" stroke-linecap="round"/>
        <text x="52" y="21" fill="#0f172a" font-size="14" font-weight="800">Speech ready</text>
        <text x="52" y="36" fill="#64748b" font-size="12">Browser/custom TTS</text>
      </g>
    </g>
  </g>
</svg>
